<?xml version="1.0" encoding="UTF-8" standalone="no"?>
<!DOCTYPE svg PUBLIC "-//W3C//DTD SVG 1.1//EN" "http://www.w3.org/Graphics/SVG/1.1/DTD/svg11.dtd">
<svg xmlns="http://www.w3.org/2000/svg" version="1.1" viewBox="0.00 0.00 1773.00 1773.00">
<path fill="#f69414" d="
  M 216.16 876.17
  A 0.20 0.20 0.0 0 1 216.28 875.90
  L 216.75 875.75
  A 0.08 0.07 60.0 0 1 216.82 875.77
  Q 221.71 883.10 226.77 889.48
  C 241.44 908.00 260.02 925.02 280.86 936.09
  Q 308.90 950.97 341.28 954.37
  Q 357.03 956.02 370.24 953.65
  C 390.72 949.96 407.98 943.50 423.83 930.81
  C 444.16 914.54 457.50 894.53 466.98 869.54
  Q 475.44 847.24 478.50 825.03
  Q 481.33 804.55 481.41 804.03
  A 0.72 0.71 -22.1 0 0 480.13 803.49
  Q 479.17 804.76 478.76 805.77
  C 468.94 829.59 452.37 851.00 432.42 868.70
  Q 415.36 883.83 396.41 893.69
  Q 373.00 905.87 346.49 907.93
  Q 312.28 910.59 282.51 893.43
  C 246.19 872.51 223.02 837.28 208.95 798.53
  Q 191.63 750.81 190.21 699.75
  Q 189.85 687.01 190.33 656.55
  Q 190.67 635.07 195.38 607.66
  Q 204.85 552.47 230.41 504.84
  Q 248.41 471.29 273.37 442.11
  C 287.91 425.12 303.41 411.08 320.74 397.61
  Q 387.25 345.90 471.19 334.54
  C 495.46 331.25 519.44 330.98 543.75 332.80
  Q 555.48 333.67 565.32 335.36
  Q 633.24 347.00 689.82 384.91
  Q 732.36 413.42 765.95 453.21
  Q 787.13 478.31 806.59 508.05
  C 810.90 514.64 810.64 524.27 805.14 529.88
  Q 745.98 590.22 635.32 700.00
  C 628.45 706.81 620.90 712.94 610.91 714.15
  Q 607.65 714.55 602.91 713.31
  C 589.32 709.75 577.47 700.21 566.77 691.23
  Q 553.81 680.34 542.97 670.97
  C 531.36 660.93 516.72 649.31 508.49 642.82
  C 500.42 636.47 489.55 629.90 479.67 627.98
  Q 469.76 626.05 460.66 626.96
  Q 452.09 627.82 442.38 632.11
  C 422.63 640.84 405.35 658.81 399.70 680.12
  Q 391.92 709.49 396.85 738.77
  A 0.67 0.67 0.0 0 1 395.82 739.44
  C 393.48 737.87 391.88 736.08 389.19 733.37
  Q 378.45 722.53 376.20 706.50
  C 374.24 692.56 374.72 678.17 379.03 665.05
  Q 386.04 643.68 401.49 627.97
  C 410.85 618.45 423.24 609.61 435.90 604.48
  Q 466.41 592.11 497.94 604.81
  Q 514.23 611.37 530.21 624.33
  Q 560.59 648.97 593.02 676.49
  Q 595.08 678.24 601.19 682.28
  C 608.46 687.09 613.87 683.22 619.60 677.59
  Q 620.52 676.69 644.85 651.35
  Q 689.56 604.79 753.41 542.00
  C 759.10 536.40 768.08 527.03 773.36 521.62
  Q 774.82 520.13 775.49 518.60
  A 1.20 1.19 -51.0 0 0 775.37 517.43
  Q 758.67 494.49 739.13 472.12
  Q 737.19 469.89 735.61 468.38
  A 0.91 0.90 44.8 0 0 734.36 468.38
  Q 686.26 514.32 632.96 566.96
  Q 631.37 568.53 626.13 573.63
  C 618.55 581.01 609.81 584.48 599.18 584.77
  Q 589.89 585.03 589.50 585.02
  C 581.20 584.96 572.61 581.51 564.97 577.33
  C 557.95 573.49 550.52 566.95 543.58 561.93
  Q 536.01 556.45 534.86 555.69
  Q 509.37 538.76 477.93 530.57
  C 469.53 528.39 459.25 526.67 451.28 530.95
  C 446.49 533.52 441.61 538.02 437.48 541.65
  Q 427.17 550.71 418.68 558.93
  Q 389.66 587.06 371.75 605.99
  C 367.13 610.87 364.54 620.39 363.78 627.04
  Q 360.85 652.59 360.41 671.75
  Q 360.30 676.91 360.36 710.14
  C 360.37 715.74 361.09 721.57 361.45 726.52
  Q 362.51 740.94 368.70 756.80
  C 373.09 768.03 378.86 777.65 387.88 785.52
  Q 394.96 791.70 401.65 795.84
  A 0.52 0.52 0.0 0 1 401.46 796.80
  C 393.94 797.95 387.43 797.38 380.22 794.89
  Q 358.21 787.31 346.94 766.56
  Q 340.96 755.56 338.17 740.36
  Q 334.94 722.78 334.34 709.38
  C 333.28 685.81 333.85 660.07 335.76 637.01
  C 336.50 628.05 337.78 619.31 339.58 611.41
  Q 343.24 595.28 355.79 582.05
  C 369.14 567.97 384.43 552.62 395.10 542.01
  Q 409.48 527.72 416.99 521.24
  C 427.49 512.18 436.27 505.49 447.86 500.62
  C 453.51 498.24 457.54 498.12 464.07 498.46
  Q 468.92 498.72 472.40 499.24
  C 502.10 503.72 531.24 515.99 554.82 533.72
  Q 568.16 543.75 575.83 549.91
  C 580.94 554.01 585.49 555.87 592.01 555.88
  C 597.42 555.89 600.86 556.04 605.16 553.16
  Q 609.77 550.06 615.46 543.71
  Q 635.99 520.75 657.84 500.08
  Q 704.52 455.91 711.14 449.64
  Q 711.98 448.84 713.54 446.92
  A 1.87 1.87 0.0 0 0 713.48 444.49
  Q 711.33 442.11 707.93 439.06
  Q 684.52 418.04 653.28 401.51
  C 611.23 379.26 562.54 365.40 514.29 364.88
  Q 496.59 364.69 482.91 365.95
  Q 469.59 367.17 450.49 370.74
  C 419.36 376.54 388.34 389.29 360.57 405.57
  Q 340.99 417.05 321.95 434.45
  Q 296.97 457.28 276.10 485.35
  C 265.69 499.35 256.39 513.94 248.89 529.64
  Q 227.04 575.41 220.07 620.76
  Q 217.60 636.81 215.93 663.53
  Q 214.40 688.08 215.73 706.47
  C 218.38 742.91 227.57 779.25 244.10 811.88
  Q 253.05 829.58 265.40 843.83
  C 287.14 868.92 318.60 885.39 352.53 878.99
  Q 365.53 876.54 375.31 872.55
  Q 390.44 866.38 405.68 854.95
  Q 416.51 846.83 423.81 839.32
  Q 434.76 828.05 444.00 815.60
  Q 452.45 804.20 460.07 788.92
  Q 471.36 766.27 477.58 743.68
  C 480.18 734.25 481.83 723.91 483.63 716.17
  C 485.25 709.18 492.81 710.22 496.75 714.30
  Q 502.43 720.18 504.27 728.49
  C 506.74 739.60 506.89 749.33 507.56 762.29
  Q 509.35 796.62 506.48 824.25
  Q 505.09 837.74 500.97 855.86
  C 495.89 878.26 486.49 900.83 474.36 918.36
  C 457.39 942.91 430.88 965.47 402.78 975.25
  C 376.17 984.50 347.08 985.60 320.10 977.88
  C 279.22 966.17 247.64 936.90 227.57 899.45
  Q 224.11 893.02 216.16 876.17
  Z"
/>
<path fill="#f69414" d="
  M 1558.05 881.41
  A 0.36 0.36 0.0 0 1 1558.60 881.86
  Q 1557.41 883.90 1552.98 891.42
  Q 1552.36 892.47 1547.68 901.15
  C 1528.21 937.22 1495.66 967.39 1455.37 978.11
  Q 1417.55 988.17 1380.42 977.16
  C 1333.64 963.28 1297.91 925.69 1281.15 880.90
  Q 1273.65 860.85 1269.67 837.05
  Q 1261.91 790.78 1267.22 743.68
  C 1268.11 735.73 1268.71 729.50 1270.64 723.15
  C 1272.12 718.29 1275.68 712.16 1280.81 710.99
  C 1284.81 710.07 1288.79 711.32 1289.67 715.89
  Q 1293.90 737.98 1301.98 758.79
  Q 1306.65 770.83 1314.57 786.98
  C 1323.51 805.20 1335.59 821.86 1349.15 836.09
  Q 1364.51 852.21 1383.21 863.48
  Q 1412.07 880.88 1445.47 879.87
  Q 1451.51 879.69 1457.56 878.08
  Q 1481.39 871.74 1498.15 857.17
  C 1519.83 838.32 1533.86 812.68 1543.48 784.78
  Q 1553.37 756.09 1557.18 725.74
  Q 1561.38 692.31 1559.78 658.04
  C 1559.22 646.09 1557.47 631.65 1555.71 620.69
  Q 1548.55 575.99 1528.09 531.16
  C 1515.19 502.89 1496.69 477.84 1476.36 456.24
  Q 1472.48 452.11 1462.68 442.49
  C 1445.21 425.32 1425.45 410.97 1403.88 399.62
  C 1371.62 382.63 1338.17 370.97 1301.86 366.54
  C 1285.18 364.51 1266.44 364.96 1250.27 365.19
  Q 1239.76 365.34 1225.48 367.51
  Q 1175.78 375.06 1130.12 398.36
  Q 1105.17 411.09 1082.09 428.85
  C 1068.51 439.30 1057.59 450.46 1045.62 463.15
  C 1029.79 479.92 1015.60 498.40 1002.92 517.19
  Q 1001.56 519.20 1003.08 520.67
  Q 1003.26 520.84 1015.56 533.19
  C 1038.73 556.47 1064.52 581.94 1088.37 606.98
  Q 1106.02 625.52 1114.69 633.90
  Q 1116.92 636.05 1117.60 636.61
  A 1.75 1.74 -47.1 0 0 1119.93 636.52
  L 1155.07 602.38
  A 1.62 1.61 46.7 0 0 1155.13 600.13
  C 1140.37 584.00 1131.40 574.33 1119.56 560.00
  A 1.62 1.59 -19.0 0 0 1118.34 559.42
  Q 1104.81 559.39 1104.01 559.41
  C 1100.98 559.46 1098.26 558.47 1094.92 556.98
  Q 1081.58 551.03 1076.31 538.47
  Q 1072.57 529.56 1074.18 519.60
  C 1075.88 509.02 1083.15 500.48 1092.39 495.52
  C 1106.83 487.77 1123.29 492.12 1133.52 504.78
  Q 1144.19 517.99 1139.74 535.50
  C 1138.51 540.31 1142.45 544.13 1145.03 547.22
  Q 1147.50 550.18 1168.65 573.84
  Q 1172.14 577.74 1174.20 579.35
  A 1.84 1.83 44.6 0 0 1176.48 579.34
  Q 1177.05 578.89 1178.04 577.79
  C 1199.00 554.40 1219.72 530.27 1248.63 515.94
  C 1266.56 507.05 1285.25 501.88 1303.33 499.15
  Q 1317.88 496.95 1331.24 503.50
  C 1348.86 512.14 1362.74 525.23 1377.79 538.86
  A 4.11 4.10 -30.3 0 0 1381.45 539.82
  Q 1406.19 534.21 1420.87 554.70
  Q 1424.32 559.51 1425.74 566.76
  C 1428.09 578.75 1422.09 590.67 1412.90 598.30
  C 1400.47 608.62 1383.72 606.98 1371.89 596.82
  Q 1363.26 589.41 1361.38 576.32
  C 1360.71 571.64 1363.50 564.76 1359.70 561.07
  Q 1348.35 550.05 1336.95 540.57
  C 1331.77 536.26 1324.93 531.95 1318.54 529.47
  Q 1315.03 528.11 1311.02 528.49
  Q 1301.87 529.37 1289.38 532.65
  Q 1260.30 540.27 1239.56 557.82
  Q 1234.29 562.27 1219.02 577.77
  Q 1206.83 590.14 1198.90 598.64
  C 1188.20 610.11 1180.14 617.87 1168.31 629.75
  Q 1161.58 636.50 1155.91 641.98
  C 1131.72 665.34 1108.94 688.04 1083.29 712.05
  Q 1081.96 713.30 1081.93 716.01
  Q 1081.66 739.58 1081.66 764.01
  Q 1081.66 770.68 1080.56 774.39
  Q 1079.03 779.59 1075.52 783.54
  Q 1061.78 799.00 1044.84 814.33
  Q 1043.09 815.91 1042.08 818.35
  A 0.92 0.86 -36.7 0 0 1042.01 818.74
  L 1042.18 834.20
  A 0.81 0.80 -36.6 0 1 1042.13 834.53
  C 1038.09 845.27 1030.07 852.98 1017.93 852.61
  Q 1009.28 852.35 1002.51 846.33
  C 992.09 837.08 992.37 822.64 1001.44 812.45
  C 1005.59 807.77 1011.16 804.08 1017.22 803.29
  Q 1019.25 803.03 1020.69 802.68
  A 1.97 1.94 -72.9 0 0 1021.63 802.17
  Q 1038.22 786.09 1054.40 768.65
  Q 1055.77 767.16 1056.47 765.21
  A 2.68 2.65 55.3 0 0 1056.63 764.30
  C 1056.69 744.28 1056.23 725.53 1057.17 707.01
  C 1057.49 700.65 1060.62 696.28 1065.30 691.54
  Q 1077.55 679.15 1094.36 663.36
  Q 1094.40 663.33 1097.00 660.49
  Q 1098.86 658.48 1096.75 656.51
  Q 1093.93 653.89 1071.05 629.74
  Q 1057.62 615.57 1045.08 603.02
  Q 1025.74 583.68 982.09 539.91
  Q 976.02 533.82 971.51 527.72
  C 966.41 520.82 968.86 513.17 972.97 506.72
  Q 985.54 487.01 1003.87 464.12
  C 1016.53 448.29 1030.73 433.95 1045.00 420.26
  Q 1082.74 384.04 1129.32 361.42
  Q 1181.08 336.28 1241.96 332.05
  Q 1249.01 331.56 1269.33 331.78
  Q 1285.98 331.96 1296.64 333.11
  Q 1339.41 337.68 1376.80 352.45
  C 1400.41 361.77 1424.78 374.79 1446.27 390.58
  Q 1465.97 405.04 1477.99 416.13
  Q 1508.21 444.01 1532.26 481.55
  Q 1569.29 539.35 1580.55 607.12
  Q 1585.12 634.61 1585.83 658.60
  Q 1586.31 674.58 1585.39 700.98
  C 1584.53 725.53 1580.60 749.57 1574.46 773.25
  C 1562.71 818.63 1540.29 861.78 1500.71 888.75
  C 1478.36 903.99 1448.11 911.58 1421.47 907.09
  C 1397.56 903.05 1373.82 892.14 1354.75 877.82
  C 1328.87 858.40 1308.03 833.32 1295.09 804.13
  A 0.44 0.44 0.0 0 0 1294.65 803.88
  Q 1294.04 803.95 1294.08 804.75
  Q 1295.59 832.17 1302.62 856.45
  C 1307.49 873.23 1315.68 889.55 1325.06 902.97
  C 1343.04 928.70 1371.36 948.73 1403.11 953.37
  Q 1426.51 956.79 1448.90 952.39
  Q 1458.61 950.48 1471.15 946.38
  Q 1506.20 934.92 1533.16 909.11
  C 1541.14 901.47 1548.70 893.70 1554.73 884.99
  Q 1555.80 883.45 1558.05 881.41
  Z
  M 1118.72 525.11
  A 10.99 10.99 0.0 0 0 1107.73 514.12
  A 10.99 10.99 0.0 0 0 1096.74 525.11
  A 10.99 10.99 0.0 0 0 1107.73 536.10
  A 10.99 10.99 0.0 0 0 1118.72 525.11
  Z
  M 1394.1970 560.3075
  A 10.70 10.01 -84.6 0 0 1383.2244 570.0180
  A 10.70 10.01 -84.6 0 0 1392.1830 581.6125
  A 10.70 10.01 -84.6 0 0 1403.1556 571.9020
  A 10.70 10.01 -84.6 0 0 1394.1970 560.3075
  Z
  M 1024.17 829.06
  A 5.82 5.82 0.0 0 0 1018.35 823.24
  A 5.82 5.82 0.0 0 0 1012.53 829.06
  A 5.82 5.82 0.0 0 0 1018.35 834.88
  A 5.82 5.82 0.0 0 0 1024.17 829.06
  Z"
/>
<path fill="#f69414" d="
  M 372.70 845.20
  A 0.67 0.65 78.0 0 1 372.14 846.08
  Q 355.69 847.44 336.31 847.40
  Q 334.28 847.39 331.45 847.11
  A 2.06 2.00 -24.5 0 1 330.52 846.78
  Q 328.52 845.42 326.37 843.22
  Q 317.74 834.36 311.81 826.81
  Q 303.13 815.77 296.48 801.78
  Q 287.06 781.96 281.96 763.35
  C 278.18 749.56 276.68 740.38 269.54 729.80
  Q 261.68 718.15 253.27 705.49
  C 245.04 693.08 245.48 673.54 255.82 662.57
  Q 261.36 656.71 264.34 653.37
  Q 266.54 650.91 267.58 645.55
  Q 268.19 642.39 271.13 622.64
  Q 276.08 589.27 288.68 559.96
  Q 296.40 541.99 308.00 527.03
  Q 313.03 520.54 327.61 504.86
  Q 334.22 497.74 348.25 483.83
  C 368.21 464.03 390.47 445.81 412.80 430.05
  C 427.04 420.00 443.54 414.22 460.88 414.63
  Q 495.93 415.45 530.40 423.05
  Q 550.79 427.55 571.16 436.14
  A 0.97 0.97 0.0 0 0 572.22 435.93
  C 577.25 430.88 582.70 426.49 589.50 424.40
  A 6.05 5.87 -53.0 0 1 591.17 424.14
  Q 598.72 424.02 603.75 424.16
  C 612.28 424.40 621.63 432.12 626.21 439.39
  Q 636.62 455.92 626.47 472.69
  Q 624.14 476.54 617.95 481.97
  Q 611.43 487.69 603.12 488.80
  Q 583.03 491.49 570.37 476.11
  Q 567.70 472.86 564.69 466.61
  Q 563.95 465.05 561.42 464.04
  Q 533.56 452.90 506.48 448.80
  Q 496.63 447.31 477.75 445.53
  Q 461.77 444.02 447.91 446.34
  Q 443.13 447.14 436.59 450.86
  Q 429.02 455.18 422.11 460.11
  C 402.30 474.24 385.64 487.59 369.49 503.75
  Q 360.17 513.09 349.16 524.41
  Q 335.08 538.88 327.78 548.02
  Q 323.98 552.78 320.62 559.12
  Q 305.89 586.99 299.75 616.99
  Q 296.90 630.94 294.60 648.98
  Q 293.72 655.84 292.36 658.62
  Q 290.85 661.68 286.34 666.61
  Q 285.60 667.42 276.14 677.43
  C 269.35 684.61 276.59 693.72 282.14 701.69
  Q 289.48 712.22 294.29 719.22
  C 296.85 722.93 299.44 728.21 300.91 733.28
  Q 305.47 749.01 307.52 756.49
  C 313.79 779.33 324.59 802.66 341.67 819.31
  Q 355.81 833.09 371.68 844.03
  Q 372.48 844.59 372.70 845.20
  Z
  M 586.6938 455.6541
  A 10.79 10.26 -177.1 0 0 596.9509 466.4469
  A 10.79 10.26 -177.1 0 0 608.2462 456.7459
  A 10.79 10.26 -177.1 0 0 597.9891 445.9531
  A 10.79 10.26 -177.1 0 0 586.6938 455.6541
  Z"
/>
<path fill="#f69414" d="
  M 1400.21 845.28
  A 0.33 0.33 0.0 0 1 1400.04 844.69
  Q 1408.59 838.40 1417.85 831.26
  C 1433.33 819.33 1446.00 804.00 1455.88 787.62
  Q 1464.60 773.17 1470.83 755.02
  Q 1479.06 731.03 1482.31 707.61
  Q 1482.76 704.43 1482.37 703.19
  Q 1481.89 701.66 1479.33 699.91
  C 1463.58 689.13 1457.86 670.36 1467.32 653.48
  C 1469.79 649.07 1474.59 644.69 1478.04 641.31
  Q 1479.28 640.09 1479.53 638.39
  A 2.32 2.28 44.6 0 0 1479.52 637.75
  Q 1476.17 617.55 1469.32 592.20
  C 1464.72 575.14 1458.46 559.71 1447.36 546.15
  C 1435.80 532.03 1423.81 520.54 1409.26 506.18
  Q 1393.42 490.53 1382.83 481.91
  Q 1364.00 466.59 1343.48 453.10
  Q 1330.17 444.34 1314.20 445.01
  Q 1279.62 446.47 1258.52 450.61
  Q 1236.85 454.86 1216.97 461.67
  Q 1214.70 462.45 1212.91 464.50
  A 2.95 2.77 79.2 0 0 1212.44 465.24
  Q 1209.78 471.49 1209.40 472.10
  C 1201.57 484.71 1189.11 490.90 1174.58 488.93
  C 1156.21 486.45 1142.25 468.17 1146.73 449.14
  Q 1150.00 435.24 1162.79 427.83
  Q 1168.66 424.43 1173.89 423.94
  Q 1180.65 423.32 1185.68 423.98
  C 1192.67 424.91 1198.54 429.36 1204.31 433.97
  A 2.17 2.16 54.1 0 0 1206.42 434.31
  Q 1231.15 425.13 1257.30 420.62
  Q 1280.15 416.68 1300.77 415.51
  Q 1306.10 415.20 1317.60 415.08
  Q 1327.38 414.97 1334.27 416.79
  C 1346.30 419.95 1356.74 425.57 1366.70 432.81
  C 1387.36 447.84 1406.23 462.74 1424.67 480.75
  C 1434.02 489.88 1444.70 500.11 1453.79 510.70
  Q 1457.69 515.25 1462.74 520.77
  Q 1480.59 540.28 1489.57 565.17
  Q 1497.59 587.42 1501.28 610.24
  Q 1502.66 618.76 1505.03 632.71
  C 1505.33 634.51 1506.35 635.58 1507.89 636.37
  C 1523.69 644.55 1533.64 658.81 1530.14 676.96
  C 1527.98 688.22 1520.47 696.23 1510.41 701.44
  A 4.83 4.82 85.6 0 0 1508.05 704.20
  Q 1507.36 706.24 1506.92 710.20
  C 1503.83 737.88 1495.25 765.59 1483.32 790.79
  Q 1469.07 820.90 1445.50 843.97
  C 1442.53 846.88 1440.89 846.91 1436.03 846.84
  Q 1417.24 846.57 1400.21 845.28
  Z
  M 1190.3153 455.3055
  A 10.78 10.21 -4.6 0 0 1178.7512 445.9929
  A 10.78 10.21 -4.6 0 0 1168.8247 457.0345
  A 10.78 10.21 -4.6 0 0 1180.3888 466.3471
  A 10.78 10.21 -4.6 0 0 1190.3153 455.3055
  Z
  M 1496.2104 657.8965
  A 12.03 10.90 -93.0 0 0 1485.9549 670.4805
  A 12.03 10.90 -93.0 0 0 1497.4696 681.9235
  A 12.03 10.90 -93.0 0 0 1507.7251 669.3395
  A 12.03 10.90 -93.0 0 0 1496.2104 657.8965
  Z"
/>
<path fill="#f69414" d="
  M 751.73 696.54
  A 0.77 0.76 -34.8 0 0 750.52 696.33
  Q 721.67 723.94 707.88 737.13
  Q 684.59 759.41 664.97 781.22
  Q 664.20 782.07 663.41 783.70
  A 2.93 2.80 60.0 0 0 663.13 784.85
  Q 662.95 793.71 663.17 800.63
  Q 663.24 802.91 664.74 804.54
  Q 676.47 817.34 692.25 832.99
  Q 693.97 834.69 695.86 836.09
  A 1.68 1.68 0.0 0 0 697.55 836.28
  C 700.91 834.76 703.54 834.71 707.72 834.54
  C 720.55 834.04 732.18 842.24 737.03 853.98
  C 742.38 866.95 736.09 881.49 724.95 888.91
  Q 717.19 894.07 707.81 893.91
  C 692.19 893.64 680.73 881.05 679.60 865.74
  Q 679.34 862.14 680.56 858.01
  C 680.94 856.69 679.68 855.00 678.57 854.06
  Q 673.70 849.97 673.67 849.93
  Q 653.35 830.15 643.91 820.09
  C 640.10 816.02 638.68 810.56 638.57 804.19
  Q 638.21 782.84 638.86 776.02
  Q 639.12 773.27 642.13 768.61
  Q 645.55 763.34 651.34 757.09
  Q 668.85 738.23 687.29 720.47
  C 729.58 679.76 770.70 638.46 815.52 593.52
  Q 831.57 577.44 844.59 565.61
  Q 854.03 557.04 866.02 551.28
  Q 884.67 542.33 904.12 550.13
  C 922.17 557.37 935.55 569.50 949.39 583.22
  Q 978.67 612.23 1000.25 632.76
  Q 1005.68 637.93 1012.01 645.13
  Q 1014.96 648.49 1015.64 652.28
  Q 1015.69 652.56 1015.85 660.29
  Q 1016.57 694.58 1015.90 717.75
  C 1015.78 721.79 1014.79 724.91 1011.96 728.18
  Q 1008.14 732.62 1003.84 736.84
  Q 985.23 755.09 969.10 771.73
  A 2.27 2.27 0.0 0 0 968.46 773.26
  C 967.62 806.31 968.02 846.54 968.14 897.57
  Q 968.14 900.51 967.88 904.43
  C 967.74 906.59 967.76 910.74 967.14 913.50
  Q 965.86 919.20 960.71 923.97
  Q 943.63 939.78 928.41 956.65
  Q 927.27 957.91 926.60 959.46
  A 1.41 1.39 57.7 0 0 926.47 960.05
  Q 926.49 981.62 926.45 1102.75
  Q 926.44 1142.32 926.82 1162.50
  Q 926.88 1165.27 928.77 1167.26
  Q 943.81 1183.10 944.34 1183.69
  Q 948.61 1188.40 950.57 1193.27
  A 2.33 2.20 34.0 0 1 950.73 1193.99
  C 951.09 1202.00 950.38 1211.72 951.17 1220.91
  Q 952.02 1230.82 952.28 1238.92
  Q 952.35 1240.97 954.84 1243.66
  C 963.02 1252.47 967.55 1256.17 967.86 1267.41
  Q 968.08 1275.56 967.46 1279.77
  C 966.00 1289.57 957.49 1297.60 949.70 1304.20
  Q 917.30 1331.63 906.18 1340.94
  C 905.09 1341.86 901.38 1344.88 901.30 1347.29
  Q 900.59 1369.48 900.69 1396.05
  A 0.81 0.80 -89.3 0 0 901.47 1396.86
  L 963.08 1398.96
  A 0.52 0.52 0.0 0 1 963.52 1399.74
  Q 955.61 1413.38 944.24 1423.32
  C 934.67 1431.69 920.72 1437.17 908.15 1439.07
  Q 899.97 1440.30 887.27 1440.45
  C 861.86 1440.74 838.70 1432.77 821.58 1413.35
  C 817.72 1408.96 814.18 1404.76 811.62 1399.82
  A 0.40 0.40 0.0 0 1 811.96 1399.24
  L 871.71 1396.91
  A 1.90 1.90 0.0 0 0 873.54 1395.03
  Q 873.80 1366.95 873.67 1347.54
  C 873.64 1343.96 872.49 1342.36 869.64 1340.07
  C 851.55 1325.49 832.66 1309.75 815.48 1293.03
  C 808.20 1285.93 808.60 1278.97 808.12 1268.96
  C 807.47 1255.60 814.10 1247.92 824.14 1240.09
  A 3.57 3.57 0.0 0 0 825.51 1237.10
  C 824.96 1225.07 823.68 1211.34 824.91 1198.23
  Q 825.70 1189.80 831.62 1184.12
  Q 842.44 1173.73 846.32 1169.57
  C 847.67 1168.13 848.02 1166.43 848.03 1164.32
  Q 848.70 1062.41 847.93 960.62
  A 1.76 1.73 28.2 0 0 847.62 959.63
  Q 845.63 956.67 843.90 954.94
  Q 820.76 931.92 814.43 925.32
  C 811.45 922.22 808.60 919.00 807.34 915.11
  A 5.64 5.60 36.3 0 1 807.07 913.39
  L 806.47 780.57
  A 1.54 1.54 0.0 0 0 806.07 779.56
  Q 801.48 774.50 797.23 770.27
  Q 769.45 742.62 757.89 731.11
  Q 751.74 724.99 751.79 716.52
  Q 751.88 699.47 751.78 697.25
  Q 751.75 696.58 751.73 696.54
  Z
  M 848.34 1237.42
  C 863.33 1244.19 876.35 1258.78 884.61 1272.56
  A 2.33 2.32 -27.8 0 0 887.58 1273.47
  Q 888.19 1273.19 888.80 1272.30
  C 893.57 1265.35 900.01 1256.51 905.56 1250.65
  Q 914.95 1240.75 927.82 1236.35
  A 2.46 2.45 -9.5 0 0 929.48 1234.03
  L 929.48 1203.58
  A 2.48 2.38 -57.8 0 0 929.28 1202.61
  Q 927.62 1198.83 925.97 1197.06
  Q 921.74 1192.50 908.56 1179.25
  Q 903.70 1174.37 903.39 1169.38
  Q 902.99 1163.12 902.98 1160.25
  Q 902.67 1095.40 903.09 963.41
  Q 903.11 955.96 903.28 954.90
  Q 903.95 950.50 904.32 949.74
  Q 905.54 947.28 907.34 945.34
  Q 919.04 932.70 933.23 917.05
  C 936.68 913.24 941.47 908.94 944.30 905.08
  A 3.43 3.40 63.3 0 0 944.96 903.06
  L 944.96 762.64
  A 2.52 2.50 62.4 0 1 945.40 761.22
  Q 948.74 756.35 952.51 752.51
  Q 984.10 720.39 988.36 715.87
  Q 989.80 714.33 989.81 712.51
  Q 989.83 701.53 989.75 661.88
  A 2.20 2.17 23.0 0 0 989.12 660.35
  Q 958.49 629.62 930.76 602.72
  C 921.94 594.16 911.61 584.77 901.21 579.33
  C 892.39 574.72 884.63 573.01 875.52 577.78
  C 867.51 581.96 860.89 587.44 853.73 594.49
  Q 813.53 634.08 778.79 669.47
  A 4.84 4.80 67.4 0 0 777.42 672.84
  L 777.48 713.06
  A 1.64 1.52 37.0 0 0 777.58 713.61
  Q 778.15 715.06 779.54 716.46
  Q 798.60 735.76 824.58 761.18
  Q 827.69 764.22 829.17 767.57
  A 2.71 2.54 -58.5 0 1 829.39 768.63
  Q 829.83 842.37 829.80 888.50
  Q 829.80 897.24 830.29 905.81
  A 4.06 4.06 0.0 0 0 831.55 908.53
  Q 848.57 924.72 861.75 938.24
  C 865.24 941.81 871.93 948.71 871.94 953.75
  Q 872.13 1060.76 871.95 1172.22
  A 2.05 2.03 52.8 0 1 871.88 1172.75
  C 870.78 1176.88 867.01 1180.25 863.88 1183.38
  Q 850.05 1197.22 846.77 1201.05
  Q 845.13 1202.97 845.22 1206.48
  Q 845.55 1220.74 846.82 1235.27
  A 2.60 2.60 0.0 0 0 848.34 1237.42
  Z
  M 708.0386 855.4946
  A 9.08 8.92 -95.0 0 0 699.9439 865.3174
  A 9.08 8.92 -95.0 0 0 709.6214 873.5854
  A 9.08 8.92 -95.0 0 0 717.7161 863.7626
  A 9.08 8.92 -95.0 0 0 708.0386 855.4946
  Z
  M 902.79 1309.23
  A 1.59 1.59 0.0 0 0 904.73 1310.31
  Q 907.33 1309.58 909.51 1308.02
  Q 924.21 1297.48 940.00 1285.46
  C 943.21 1283.02 946.46 1279.66 949.01 1276.56
  A 5.42 5.41 -22.8 0 0 950.22 1273.61
  Q 950.68 1268.60 949.65 1263.98
  A 5.02 4.88 -67.4 0 0 949.10 1262.59
  C 941.91 1250.40 930.66 1256.56 922.79 1263.54
  Q 913.79 1271.54 910.54 1275.54
  C 906.90 1280.03 905.71 1285.02 904.75 1290.77
  C 903.31 1299.40 901.67 1305.39 902.79 1309.23
  Z
  M 865.94 1307.77
  L 869.09 1309.59
  A 0.76 0.76 0.0 0 0 870.23 1308.84
  Q 869.58 1303.24 867.36 1289.36
  Q 866.59 1284.53 865.62 1281.22
  A 5.97 5.87 21.0 0 0 864.91 1279.66
  C 860.75 1273.25 853.62 1268.67 848.17 1263.23
  C 845.05 1260.11 841.75 1256.68 837.86 1256.12
  Q 835.72 1255.81 833.40 1257.40
  Q 829.43 1260.13 826.86 1264.41
  C 822.64 1271.46 826.21 1277.72 831.82 1282.66
  Q 849.16 1297.96 857.08 1304.56
  Q 862.83 1309.36 867.12 1311.67
  A 0.72 0.72 0.0 0 0 867.98 1310.55
  L 865.65 1308.07
  A 0.01 0.01 0.0 0 1 865.65 1308.05
  L 865.79 1307.82
  A 0.11 0.11 0.0 0 1 865.94 1307.77
  Z"
/>
<path fill="#f69414" d="
  M 998.28 949.07
  A 0.62 0.62 0.0 0 1 997.82 948.01
  Q 1017.05 928.42 1025.87 919.37
  C 1033.15 911.90 1044.19 899.75 1053.19 890.69
  Q 1098.41 845.24 1121.16 822.23
  A 2.84 2.83 67.8 0 0 1121.99 820.25
  L 1122.72 749.42
  A 4.89 4.82 54.1 0 1 1122.92 748.11
  C 1126.09 737.26 1131.86 730.92 1139.90 722.65
  C 1161.35 700.59 1183.12 677.89 1205.23 658.68
  Q 1226.34 640.35 1244.10 626.35
  Q 1254.04 618.51 1264.79 612.36
  C 1286.30 600.06 1315.81 595.26 1339.23 605.61
  C 1352.37 611.41 1363.16 619.58 1373.20 629.56
  C 1389.89 646.16 1399.13 668.88 1401.84 692.66
  Q 1404.49 715.85 1402.11 738.86
  Q 1400.30 756.36 1394.33 772.75
  Q 1392.23 778.50 1388.78 782.94
  Q 1384.31 788.68 1376.77 788.87
  Q 1368.77 789.08 1360.72 788.36
  A 0.87 0.87 0.0 0 1 1360.04 787.05
  C 1364.60 779.32 1368.84 771.52 1371.42 762.94
  C 1376.97 744.41 1378.49 724.70 1376.86 705.10
  Q 1374.81 680.41 1366.81 665.39
  Q 1356.76 646.51 1337.20 635.05
  C 1324.62 627.69 1309.06 626.39 1294.93 629.52
  C 1286.93 631.29 1277.34 635.89 1271.34 639.62
  Q 1265.27 643.39 1255.79 650.80
  Q 1247.20 657.51 1230.45 672.96
  Q 1191.79 708.62 1156.96 743.36
  C 1154.54 745.77 1151.40 748.42 1148.95 750.69
  Q 1147.42 752.10 1146.63 753.70
  A 3.84 3.80 -29.4 0 0 1146.27 754.96
  Q 1145.87 758.91 1145.85 763.51
  Q 1145.75 793.61 1145.41 825.33
  Q 1145.33 832.21 1142.67 836.02
  Q 1141.42 837.80 1135.08 844.25
  Q 1108.67 871.10 1054.24 925.74
  C 1048.73 931.28 1042.72 937.43 1035.57 941.08
  C 1026.33 945.81 1017.17 948.44 1007.10 948.84
  Q 1004.31 948.96 998.28 949.07
  Z"
/>
<path fill="#f69414" d="
  M 898.63 700.40
  L 898.63 834.95
  A 1.35 1.34 -72.6 0 0 899.20 836.05
  C 902.06 838.05 906.39 840.47 908.78 842.91
  Q 918.16 852.50 916.64 866.70
  Q 915.75 874.99 910.71 880.97
  Q 897.50 896.65 877.33 890.15
  C 869.98 887.78 862.81 879.91 860.88 871.95
  C 858.24 861.04 860.64 849.92 869.11 842.26
  Q 872.87 838.86 875.89 836.38
  A 2.60 2.57 -20.1 0 0 876.83 834.39
  L 876.83 701.51
  A 3.35 3.34 15.7 0 0 875.22 698.65
  C 864.70 692.24 856.43 683.55 854.94 670.55
  Q 853.83 660.82 857.05 653.65
  C 862.99 640.44 876.37 630.95 891.34 632.55
  Q 907.19 634.24 917.07 647.97
  C 925.28 659.38 924.68 675.55 915.85 686.59
  Q 909.43 694.62 900.00 698.38
  A 2.18 2.17 -11.0 0 0 898.63 700.40
  Z
  M 888.3637 652.5829
  A 13.07 12.65 -88.8 0 0 875.4428 665.3851
  A 13.07 12.65 -88.8 0 0 887.8163 678.7171
  A 13.07 12.65 -88.8 0 0 900.7372 665.9149
  A 13.07 12.65 -88.8 0 0 888.3637 652.5829
  Z
  M 885.0029 855.6661
  A 8.30 8.08 -115.3 0 0 881.2450 866.6231
  A 8.30 8.08 -115.3 0 0 892.0971 870.6739
  A 8.30 8.08 -115.3 0 0 895.8550 859.7169
  A 8.30 8.08 -115.3 0 0 885.0029 855.6661
  Z"
/>
<path fill="#f69414" d="
  M 1161.85 941.22
  Q 1162.56 937.73 1162.63 937.12
  Q 1163.52 929.08 1164.61 921.05
  C 1165.95 911.31 1166.41 901.50 1167.38 891.65
  Q 1168.03 885.15 1168.14 878.34
  Q 1168.44 860.53 1168.37 838.26
  Q 1168.36 831.17 1172.90 825.64
  Q 1178.51 818.80 1186.14 815.92
  C 1195.51 812.36 1209.37 813.15 1210.33 826.21
  Q 1210.79 832.42 1209.86 836.86
  Q 1203.47 867.26 1194.71 901.71
  C 1193.80 905.27 1192.64 907.89 1190.19 910.79
  Q 1176.96 926.48 1162.70 941.66
  A 0.50 0.50 0.0 0 1 1161.85 941.22
  Z"
/>
<path fill="#f69414" d="
  M 613.57 943.05
  A 0.33 0.33 0.0 0 1 613.03 943.10
  Q 602.42 930.41 588.05 914.29
  Q 585.58 911.51 582.03 906.03
  Q 580.51 903.68 578.09 893.89
  Q 571.69 867.96 565.36 841.24
  Q 564.28 836.68 564.25 834.06
  Q 564.17 827.52 564.15 826.74
  C 563.97 818.96 572.15 814.35 579.11 814.57
  C 589.82 814.92 599.47 819.80 604.27 829.49
  Q 606.00 832.99 606.19 839.25
  Q 606.32 843.75 606.43 857.00
  Q 606.69 886.35 608.74 904.00
  Q 611.94 931.53 613.63 942.22
  Q 613.72 942.79 613.57 943.05
  Z"
/>
<path fill="#f69414" d="
  M 673.80 926.69
  C 683.76 928.46 694.20 933.45 703.50 937.86
  C 713.10 942.42 724.32 945.15 732.73 952.03
  Q 738.07 956.40 742.31 961.50
  Q 750.38 971.20 782.20 1003.86
  C 786.89 1008.68 791.93 1013.58 793.93 1019.78
  Q 794.98 1023.01 795.09 1030.38
  Q 795.48 1054.68 795.10 1087.00
  Q 795.05 1091.93 794.45 1102.52
  C 794.10 1108.63 792.69 1111.35 788.76 1115.51
  Q 786.55 1117.86 772.26 1133.00
  Q 769.01 1136.44 768.40 1141.02
  Q 767.85 1145.18 767.77 1152.25
  Q 767.27 1196.86 767.60 1276.30
  C 767.62 1280.53 768.10 1287.56 768.68 1293.01
  Q 769.22 1298.12 772.37 1302.11
  Q 788.73 1322.82 798.87 1334.76
  Q 802.63 1339.18 809.52 1345.05
  C 817.82 1352.12 826.54 1355.26 837.56 1357.35
  C 845.97 1358.94 849.80 1360.86 849.99 1370.03
  Q 850.06 1373.56 846.53 1374.26
  C 824.33 1378.64 803.83 1375.07 787.98 1358.29
  Q 782.59 1352.59 780.06 1349.30
  Q 771.30 1337.91 756.89 1319.81
  Q 755.31 1317.82 752.43 1313.68
  Q 746.74 1305.49 746.73 1296.00
  Q 746.63 1199.21 746.38 1139.94
  Q 746.35 1133.26 747.09 1130.64
  C 749.18 1123.17 753.57 1117.80 758.96 1112.20
  Q 768.99 1101.77 771.55 1098.97
  A 3.98 3.94 68.5 0 0 772.57 1096.59
  C 773.38 1085.52 773.13 1069.51 773.19 1044.01
  Q 773.21 1036.63 772.91 1031.60
  Q 772.76 1029.00 769.27 1023.70
  Q 766.33 1019.23 756.53 1008.45
  C 743.58 994.20 726.68 992.69 708.86 986.38
  C 700.01 983.25 695.22 978.93 688.59 970.87
  Q 680.83 961.43 668.00 946.60
  C 664.66 942.75 661.64 938.38 664.73 933.23
  Q 667.89 927.97 672.65 926.73
  A 2.61 2.60 42.9 0 1 673.80 926.69
  Z"
/>
<path fill="#f69414" d="
  M 927.36 1366.10
  C 927.31 1361.91 928.77 1359.87 933.25 1359.01
  Q 944.34 1356.88 947.06 1356.31
  Q 954.63 1354.73 960.77 1349.03
  C 973.72 1337.02 983.15 1326.26 996.19 1310.89
  C 1001.20 1304.99 1006.90 1300.25 1007.03 1292.00
  Q 1007.20 1280.54 1007.01 1226.00
  Q 1006.95 1210.95 1006.13 1198.03
  Q 1005.76 1192.29 1005.52 1190.60
  A 7.28 7.21 21.5 0 0 1003.91 1186.95
  Q 1001.65 1184.23 990.95 1172.37
  C 984.80 1165.55 980.36 1160.62 980.10 1152.96
  Q 979.72 1142.18 979.70 1138.75
  Q 979.31 1078.96 980.20 1042.52
  Q 980.53 1029.30 983.09 1021.30
  Q 984.61 1016.52 989.90 1011.14
  Q 1029.65 970.72 1045.66 954.91
  Q 1051.66 948.99 1055.49 946.66
  Q 1059.66 944.13 1067.13 941.25
  Q 1077.81 937.13 1093.60 930.36
  Q 1100.15 927.56 1108.04 928.06
  A 2.34 2.30 62.2 0 1 1109.17 928.42
  Q 1112.95 930.75 1114.46 935.62
  C 1116.33 941.67 1104.05 954.39 1099.18 959.82
  C 1092.65 967.09 1087.92 973.55 1082.62 979.61
  C 1077.26 985.74 1069.70 988.44 1061.53 991.31
  Q 1058.89 992.23 1040.08 997.54
  Q 1029.17 1000.62 1020.79 1009.04
  Q 1012.66 1017.22 1003.60 1028.59
  C 1001.30 1031.49 1001.49 1039.32 1001.41 1042.78
  Q 1000.29 1087.19 1001.30 1133.32
  Q 1001.51 1142.75 1002.67 1148.64
  Q 1003.39 1152.28 1005.87 1155.17
  Q 1008.39 1158.10 1021.52 1172.91
  Q 1025.41 1177.28 1027.52 1182.40
  A 4.78 4.71 33.6 0 1 1027.87 1184.08
  C 1028.81 1214.00 1028.42 1246.95 1028.38 1288.38
  Q 1028.37 1296.63 1027.09 1301.01
  C 1024.74 1309.10 1021.47 1315.03 1015.73 1322.22
  Q 1001.45 1340.10 990.94 1353.89
  C 980.89 1367.06 965.26 1376.24 948.52 1376.39
  Q 938.63 1376.48 929.78 1374.72
  A 2.50 2.49 2.2 0 1 927.78 1372.56
  Q 927.41 1369.43 927.36 1366.10
  Z"
/>
<path fill="#f69414" d="
  M 1051.44 1190.12
  A 0.31 0.30 -19.3 0 1 1050.91 1189.87
  Q 1054.05 1169.50 1058.97 1142.08
  Q 1063.58 1116.37 1066.57 1102.30
  C 1068.00 1095.63 1071.54 1091.42 1075.91 1086.15
  Q 1125.59 1026.27 1133.71 1016.47
  Q 1133.96 1016.17 1152.69 993.26
  C 1154.05 991.60 1155.34 989.33 1156.79 987.98
  A 0.57 0.56 -27.2 0 1 1157.73 988.28
  Q 1157.80 988.66 1157.53 989.28
  C 1155.31 994.45 1154.63 999.01 1153.31 1004.10
  Q 1142.11 1047.44 1133.11 1083.58
  Q 1132.02 1087.94 1129.66 1093.95
  A 6.63 6.53 -18.0 0 1 1129.00 1095.22
  Q 1125.91 1099.91 1121.72 1104.98
  Q 1119.97 1107.10 1106.84 1122.82
  Q 1073.57 1162.65 1056.47 1183.55
  C 1054.47 1185.99 1053.23 1188.23 1051.44 1190.12
  Z"
/>
<path fill="#f69414" d="
  M 617.12 988.23
  Q 617.96 988.93 619.05 990.21
  Q 672.46 1052.80 681.36 1063.56
  Q 693.21 1077.90 703.38 1090.78
  C 707.11 1095.51 707.90 1099.40 709.52 1106.45
  Q 717.44 1140.91 723.22 1171.39
  C 724.53 1178.29 725.33 1185.51 726.84 1192.06
  A 0.56 0.56 0.0 0 1 725.86 1192.53
  Q 673.43 1126.60 650.59 1097.95
  Q 647.33 1093.86 645.11 1086.39
  Q 638.27 1063.33 637.27 1059.84
  Q 627.30 1025.35 619.82 997.94
  Q 618.82 994.30 616.72 988.51
  A 0.25 0.25 0.0 0 1 617.12 988.23
  Z"
/>
<path fill="#f69414" d="
  M 833.1461 1261.0484
  A 1.25 0.18 -45.5 0 1 832.3984 1262.0662
  A 1.25 0.18 -45.5 0 1 831.3939 1262.8316
  A 1.25 0.18 -45.5 0 1 832.1416 1261.8138
  A 1.25 0.18 -45.5 0 1 833.1461 1261.0484
  Z"
/>
<path fill="#f69414" d="
  M 828.82 1275.13
  Q 828.93 1275.24 828.98 1275.49
  A 0.11 0.10 13.4 0 1 828.81 1275.59
  Q 828.63 1275.47 828.58 1275.28
  A 0.15 0.14 -76.3 0 1 828.82 1275.13
  Z"
/>
<path fill="#f69414" d="
  M 905.4462 1306.8810
  A 0.49 0.33 -66.4 0 1 905.5524 1307.4621
  A 0.49 0.33 -66.4 0 1 905.0538 1307.7790
  A 0.49 0.33 -66.4 0 1 904.9476 1307.1979
  A 0.49 0.33 -66.4 0 1 905.4462 1306.8810
  Z"
/>
</svg>
